<svg width="162" height="42" viewBox="0 0 162 42" fill="none" xmlns="http://www.w3.org/2000/svg">
<path d="M35.0883 20.9009H40.6952C41.6297 20.9009 42.346 21.1323 42.8441 21.5951C43.3466 22.058 43.5978 22.631 43.5978 23.3142C43.5978 23.8873 43.4193 24.3787 43.0623 24.7887C42.8242 25.062 42.476 25.278 42.0176 25.4366C42.714 25.6041 43.2254 25.8929 43.5516 26.3028C43.8821 26.7083 44.0474 27.2197 44.0474 27.8368C44.0474 28.3393 43.9306 28.7911 43.697 29.1922C43.4634 29.5933 43.1438 29.9107 42.7383 30.1443C42.487 30.2898 42.108 30.3956 41.601 30.4617C40.9266 30.5499 40.4792 30.5939 40.2588 30.5939H35.0883V20.9009ZM38.1099 24.7027H39.4125C39.8797 24.7027 40.2037 24.6234 40.3844 24.4647C40.5696 24.3016 40.6621 24.068 40.6621 23.7638C40.6621 23.4817 40.5696 23.2613 40.3844 23.1026C40.2037 22.944 39.8863 22.8646 39.4323 22.8646H38.1099V24.7027ZM38.1099 28.5112H39.6373C40.153 28.5112 40.5167 28.4208 40.7283 28.2401C40.9398 28.055 41.0456 27.8081 41.0456 27.4996C41.0456 27.213 40.9398 26.9838 40.7283 26.8119C40.5211 26.6356 40.1552 26.5474 39.6307 26.5474H38.1099V28.5112ZM46.2915 20.9009H54.3184V22.9704H49.2933V24.511H53.9547V26.4879H49.2933V28.3988H54.4639V30.5939H46.2915V20.9009ZM56.2385 27.3872L59.0882 27.2086C59.1499 27.6715 59.2756 28.0241 59.4651 28.2665C59.7737 28.6588 60.2145 28.855 60.7875 28.855C61.2151 28.855 61.5434 28.7558 61.7727 28.5575C62.0063 28.3547 62.1231 28.1211 62.1231 27.8566C62.1231 27.6053 62.0129 27.3805 61.7925 27.1822C61.5721 26.9838 61.0608 26.7965 60.2585 26.6202C58.945 26.3248 58.0083 25.9325 57.4485 25.4433C56.8843 24.954 56.6021 24.3302 56.6021 23.5721C56.6021 23.074 56.7454 22.6045 57.0319 22.1637C57.3228 21.7185 57.757 21.3703 58.3345 21.1191C58.9163 20.8634 59.7119 20.7356 60.7214 20.7356C61.96 20.7356 62.9033 20.967 63.5513 21.4298C64.2036 21.8882 64.5915 22.62 64.715 23.625L61.8917 23.7903C61.8167 23.3539 61.6581 23.0365 61.4156 22.8382C61.1776 22.6398 60.847 22.5406 60.4238 22.5406C60.0756 22.5406 59.8133 22.6156 59.637 22.7654C59.4607 22.9109 59.3725 23.0894 59.3725 23.301C59.3725 23.4553 59.4453 23.5941 59.5907 23.7175C59.7318 23.8454 60.0668 23.9644 60.5957 24.0746C61.9049 24.3567 62.8416 24.6432 63.4058 24.9341C63.9744 25.2207 64.3866 25.5777 64.6422 26.0053C64.9023 26.4328 65.0323 26.9111 65.0323 27.4401C65.0323 28.0616 64.8604 28.6346 64.5166 29.1591C64.1728 29.6837 63.6923 30.0826 63.0752 30.3559C62.4581 30.6248 61.6801 30.7592 60.7412 30.7592C59.0926 30.7592 57.951 30.4419 57.3162 29.8071C56.6815 29.1724 56.3222 28.3657 56.2385 27.3872ZM66.5425 20.9009H75.6471V23.2944H72.5924V30.5939H69.5972V23.2944H66.5425V20.9009ZM82.8924 20.9009H88.4993C89.4338 20.9009 90.1501 21.1323 90.6482 21.5951C91.1507 22.058 91.402 22.631 91.402 23.3142C91.402 23.8873 91.2234 24.3787 90.8664 24.7887C90.6284 25.062 90.2801 25.278 89.8217 25.4366C90.5182 25.6041 91.0295 25.8929 91.3557 26.3028C91.6863 26.7083 91.8516 27.2197 91.8516 27.8368C91.8516 28.3393 91.7348 28.7911 91.5011 29.1922C91.2675 29.5933 90.9479 29.9107 90.5424 30.1443C90.2912 30.2898 89.9121 30.3956 89.4052 30.4617C88.7307 30.5499 88.2833 30.5939 88.0629 30.5939H82.8924V20.9009ZM85.9141 24.7027H87.2166C87.6839 24.7027 88.0078 24.6234 88.1886 24.4647C88.3737 24.3016 88.4663 24.068 88.4663 23.7638C88.4663 23.4817 88.3737 23.2613 88.1886 23.1026C88.0078 22.944 87.6905 22.8646 87.2365 22.8646H85.9141V24.7027ZM85.9141 28.5112H87.4414C87.9572 28.5112 88.3208 28.4208 88.5324 28.2401C88.744 28.055 88.8498 27.8081 88.8498 27.4996C88.8498 27.213 88.744 26.9838 88.5324 26.8119C88.3252 26.6356 87.9594 26.5474 87.4348 26.5474H85.9141V28.5112ZM100.053 20.9009H103.042V26.6797C103.042 27.2527 102.951 27.7949 102.77 28.3062C102.594 28.8131 102.314 29.2583 101.931 29.6418C101.552 30.0209 101.153 30.2876 100.734 30.4419C100.152 30.6578 99.4535 30.7658 98.638 30.7658C98.1664 30.7658 97.6507 30.7328 97.0908 30.6667C96.5354 30.6005 96.0704 30.4705 95.6957 30.2766C95.3211 30.0782 94.9772 29.7983 94.6643 29.4368C94.3557 29.0754 94.1441 28.7029 94.0295 28.3194C93.8444 27.7023 93.7518 27.1557 93.7518 26.6797V20.9009H96.7404V26.8185C96.7404 27.3475 96.8859 27.7618 97.1768 28.0616C97.4721 28.3569 97.8799 28.5046 98.4 28.5046C98.9157 28.5046 99.3191 28.3591 99.61 28.0682C99.9053 27.7729 100.053 27.3563 100.053 26.8185V20.9009ZM105.821 20.9009H108.823V30.5939H105.821V20.9009ZM111.656 20.9009H114.651V28.207H119.325V30.5939H111.656V20.9009ZM121.404 20.9009H125.854C126.731 20.9009 127.439 21.0199 127.976 21.2579C128.519 21.4959 128.966 21.8376 129.319 22.2828C129.671 22.728 129.927 23.2459 130.086 23.8366C130.244 24.4272 130.324 25.0532 130.324 25.7143C130.324 26.7502 130.205 27.5547 129.967 28.1277C129.733 28.6963 129.407 29.1746 128.988 29.5625C128.569 29.946 128.12 30.2016 127.639 30.3295C126.982 30.5058 126.387 30.5939 125.854 30.5939H121.404V20.9009ZM124.399 23.096V28.3922H125.133C125.759 28.3922 126.204 28.3238 126.469 28.1872C126.733 28.0461 126.941 27.8037 127.09 27.4599C127.24 27.1117 127.315 26.5496 127.315 25.7738C127.315 24.7468 127.148 24.0437 126.813 23.6646C126.478 23.2856 125.922 23.096 125.147 23.096H124.399ZM132.7 20.9009H135.702V30.5939H132.7V20.9009ZM138.554 20.9009H141.351L145.001 26.2631V20.9009H147.824V30.5939H145.001L141.371 25.2713V30.5939H138.554V20.9009ZM155.364 27.083V25.0664H159.993V29.1988C159.107 29.8027 158.322 30.2149 157.639 30.4352C156.96 30.6512 156.153 30.7592 155.219 30.7592C154.068 30.7592 153.129 30.5631 152.402 30.1708C151.679 29.7785 151.117 29.1944 150.716 28.4186C150.319 27.6428 150.121 26.7524 150.121 25.7474C150.121 24.6895 150.339 23.7704 150.776 22.9902C151.212 22.2056 151.851 21.6105 152.693 21.205C153.35 20.8921 154.234 20.7356 155.344 20.7356C156.416 20.7356 157.216 20.8325 157.745 21.0265C158.278 21.2204 158.719 21.5224 159.067 21.9323C159.42 22.3379 159.684 22.8536 159.86 23.4795L156.971 23.9952C156.852 23.6294 156.649 23.3495 156.363 23.1555C156.081 22.9616 155.719 22.8646 155.278 22.8646C154.622 22.8646 154.097 23.0938 153.705 23.5522C153.317 24.0063 153.123 24.727 153.123 25.7143C153.123 26.7634 153.319 27.5128 153.711 27.9624C154.108 28.412 154.659 28.6368 155.364 28.6368C155.699 28.6368 156.019 28.5883 156.323 28.4913C156.627 28.3944 156.975 28.2291 157.368 27.9955V27.083H155.364Z" fill="black"/>
<path d="M10.4261 13.2901V1.42844L24.0096 10.8987V24.0996M12.1479 13.2901V5.15913L20.9486 11.377V21.2298M13.6785 13.2901V8.79417L19.2267 12.7162V18.3601" stroke="#53A2DA" stroke-width="0.765271"/>
<path d="M16.8352 20.0819L17.3135 14.9163L0.573242 23.2386V39.6919M4.30394 24.0995L14.7307 18.7426M14.7307 21.1341L4.30394 26.3954M14.7307 23.2386L4.30394 28.5955M14.2525 25.9171L3.9213 31.274M14.2525 28.5955L3.9213 33.7611M14.2525 30.6043L3.9213 36.1526M13.8698 33.1871L3.53867 38.6397M13.8698 35.7699L3.53867 40.9355" stroke="#F29222" stroke-width="0.765271"/>
<path d="M18.7485 39.405V23.9082L24.201 27.3702M30.8015 39.405V31.5609L24.201 27.3702M27.6447 32.1349V39.405M24.201 27.3702V39.405M20.853 28.0216V39.405" stroke="#7FBB48" stroke-width="0.765271"/>
<path d="M55.9851 38.1743V34.3242H56.4946V37.72H58.3907V38.1743H55.9851ZM60.8489 37.2761L61.3374 37.3365C61.2603 37.6219 61.1176 37.8434 60.9093 38.001C60.7009 38.1586 60.4348 38.2373 60.1109 38.2373C59.703 38.2373 59.3791 38.1122 59.1392 37.8618C58.9011 37.6097 58.782 37.2569 58.782 36.8034C58.782 36.3342 58.9028 35.97 59.1444 35.7109C59.3861 35.4518 59.6995 35.3222 60.0846 35.3222C60.4576 35.3222 60.7622 35.4491 60.9986 35.703C61.2349 35.9569 61.3531 36.3141 61.3531 36.7745C61.3531 36.8025 61.3523 36.8446 61.3505 36.9006H59.2705C59.288 37.207 59.3747 37.4416 59.5305 37.6044C59.6863 37.7672 59.8807 37.8487 60.1135 37.8487C60.2869 37.8487 60.4348 37.8031 60.5574 37.7121C60.6799 37.6211 60.7771 37.4757 60.8489 37.2761ZM59.2968 36.5119H60.8541C60.8331 36.2773 60.7736 36.1013 60.6756 35.984C60.525 35.8019 60.3298 35.7109 60.0899 35.7109C59.8728 35.7109 59.6898 35.7836 59.541 35.9289C59.3939 36.0742 59.3125 36.2685 59.2968 36.5119ZM63.42 38.1743V34.3242H63.8927V38.1743H63.42ZM64.4521 36.7798C64.4521 36.2633 64.5957 35.8807 64.8828 35.6321C65.1227 35.4255 65.4151 35.3222 65.76 35.3222C66.1434 35.3222 66.4568 35.4483 66.7002 35.7004C66.9435 35.9508 67.0652 36.2974 67.0652 36.7404C67.0652 37.0993 67.011 37.3821 66.9024 37.5887C66.7956 37.7935 66.6389 37.9528 66.4323 38.0666C66.2275 38.1804 66.0033 38.2373 65.76 38.2373C65.3695 38.2373 65.0535 38.1122 64.8119 37.8618C64.572 37.6114 64.4521 37.2508 64.4521 36.7798ZM64.938 36.7798C64.938 37.1369 65.0159 37.4048 65.1717 37.5834C65.3275 37.7602 65.5236 37.8487 65.76 37.8487C65.9946 37.8487 66.1898 37.7594 66.3456 37.5808C66.5015 37.4022 66.5794 37.1299 66.5794 36.764C66.5794 36.4191 66.5006 36.1582 66.343 35.9814C66.1872 35.8028 65.9928 35.7135 65.76 35.7135C65.5236 35.7135 65.3275 35.8019 65.1717 35.9788C65.0159 36.1556 64.938 36.4226 64.938 36.7798ZM67.5353 38.4054L67.9949 38.4737C68.0142 38.6155 68.0676 38.7188 68.1551 38.7836C68.2724 38.8711 68.4326 38.9149 68.6357 38.9149C68.8546 38.9149 69.0235 38.8711 69.1426 38.7836C69.2617 38.6961 69.3422 38.5735 69.3842 38.4159C69.4087 38.3196 69.4201 38.1174 69.4184 37.8093C69.2118 38.0526 68.9544 38.1743 68.6462 38.1743C68.2628 38.1743 67.966 38.036 67.7559 37.7594C67.5458 37.4827 67.4408 37.151 67.4408 36.764C67.4408 36.4979 67.4889 36.2528 67.5852 36.0287C67.6815 35.8028 67.8207 35.6286 68.0028 35.506C68.1866 35.3835 68.402 35.3222 68.6489 35.3222C68.978 35.3222 69.2494 35.4553 69.463 35.7214V35.3852H69.899V37.7961C69.899 38.2303 69.8543 38.5376 69.765 38.718C69.6775 38.9 69.5374 39.0436 69.3448 39.1487C69.154 39.2537 68.9185 39.3062 68.6384 39.3062C68.3057 39.3062 68.0369 39.2309 67.8321 39.0804C67.6272 38.9316 67.5283 38.7066 67.5353 38.4054ZM67.9266 36.7299C67.9266 37.0958 67.9993 37.3628 68.1446 37.5309C68.2899 37.699 68.472 37.783 68.6909 37.783C68.908 37.783 69.0901 37.6998 69.2371 37.5335C69.3842 37.3654 69.4577 37.1028 69.4577 36.7456C69.4577 36.4042 69.3816 36.1468 69.2293 35.9735C69.0787 35.8002 68.8966 35.7135 68.683 35.7135C68.4729 35.7135 68.2943 35.7993 68.1472 35.9709C68.0002 36.1407 67.9266 36.3937 67.9266 36.7299ZM72.5252 37.2761L73.0137 37.3365C72.9367 37.6219 72.794 37.8434 72.5856 38.001C72.3773 38.1586 72.1111 38.2373 71.7872 38.2373C71.3793 38.2373 71.0554 38.1122 70.8155 37.8618C70.5774 37.6097 70.4583 37.2569 70.4583 36.8034C70.4583 36.3342 70.5792 35.97 70.8208 35.7109C71.0624 35.4518 71.3758 35.3222 71.761 35.3222C72.1339 35.3222 72.4385 35.4491 72.6749 35.703C72.9113 35.9569 73.0295 36.3141 73.0295 36.7745C73.0295 36.8025 73.0286 36.8446 73.0268 36.9006H70.9468C70.9643 37.207 71.051 37.4416 71.2068 37.6044C71.3627 37.7672 71.557 37.8487 71.7899 37.8487C71.9632 37.8487 72.1111 37.8031 72.2337 37.7121C72.3563 37.6211 72.4534 37.4757 72.5252 37.2761ZM70.9731 36.5119H72.5305C72.5095 36.2773 72.4499 36.1013 72.3519 35.984C72.2013 35.8019 72.0061 35.7109 71.7662 35.7109C71.5491 35.7109 71.3662 35.7836 71.2173 35.9289C71.0703 36.0742 70.9889 36.2685 70.9731 36.5119ZM73.6099 38.1743V35.3852H74.0327V35.7765C74.1202 35.64 74.2367 35.5306 74.382 35.4483C74.5273 35.3642 74.6927 35.3222 74.8783 35.3222C75.0849 35.3222 75.2539 35.3651 75.3852 35.4509C75.5183 35.5367 75.6119 35.6566 75.6662 35.8107C75.8868 35.485 76.174 35.3222 76.5276 35.3222C76.8043 35.3222 77.017 35.3992 77.1658 35.5533C77.3146 35.7056 77.389 35.9411 77.389 36.2598V38.1743H76.9189V36.4174C76.9189 36.2283 76.9032 36.0926 76.8717 36.0103C76.8419 35.9262 76.7867 35.8588 76.7062 35.8081C76.6257 35.7573 76.5311 35.7319 76.4226 35.7319C76.2265 35.7319 76.0636 35.7976 75.9341 35.9289C75.8045 36.0584 75.7397 36.2668 75.7397 36.5539V38.1743H75.267V36.3622C75.267 36.1521 75.2285 35.9945 75.1515 35.8895C75.0744 35.7844 74.9484 35.7319 74.7733 35.7319C74.6402 35.7319 74.5168 35.7669 74.403 35.837C74.2909 35.907 74.2095 36.0094 74.1587 36.1442C74.108 36.279 74.0826 36.4734 74.0826 36.7273V38.1743H73.6099ZM79.9995 37.2761L80.488 37.3365C80.411 37.6219 80.2683 37.8434 80.0599 38.001C79.8516 38.1586 79.5855 38.2373 79.2616 38.2373C78.8536 38.2373 78.5297 38.1122 78.2898 37.8618C78.0517 37.6097 77.9327 37.2569 77.9327 36.8034C77.9327 36.3342 78.0535 35.97 78.2951 35.7109C78.5367 35.4518 78.8501 35.3222 79.2353 35.3222C79.6082 35.3222 79.9129 35.4491 80.1492 35.703C80.3856 35.9569 80.5038 36.3141 80.5038 36.7745C80.5038 36.8025 80.5029 36.8446 80.5011 36.9006H78.4212C78.4387 37.207 78.5253 37.4416 78.6812 37.6044C78.837 37.7672 79.0313 37.8487 79.2642 37.8487C79.4375 37.8487 79.5855 37.8031 79.708 37.7121C79.8306 37.6211 79.9277 37.4757 79.9995 37.2761ZM78.4474 36.5119H80.0048C79.9838 36.2773 79.9242 36.1013 79.8262 35.984C79.6756 35.8019 79.4804 35.7109 79.2405 35.7109C79.0234 35.7109 78.8405 35.7836 78.6917 35.9289C78.5446 36.0742 78.4632 36.2685 78.4474 36.5119ZM81.0842 38.1743V35.3852H81.5096V35.7818C81.7145 35.4754 82.0104 35.3222 82.3973 35.3222C82.5654 35.3222 82.7195 35.3528 82.8595 35.4141C83.0013 35.4737 83.1073 35.5524 83.1773 35.6505C83.2473 35.7485 83.2964 35.865 83.3244 35.9998C83.3419 36.0873 83.3506 36.2405 83.3506 36.4594V38.1743H82.8779V36.4778C82.8779 36.2852 82.8595 36.1416 82.8228 36.0471C82.786 35.9508 82.7203 35.8746 82.6258 35.8186C82.533 35.7608 82.4236 35.7319 82.2975 35.7319C82.0962 35.7319 81.9219 35.7958 81.7749 35.9236C81.6296 36.0514 81.5569 36.2939 81.5569 36.6511V38.1743H81.0842ZM85.1102 37.7515L85.1785 38.1691C85.0454 38.1971 84.9264 38.2111 84.8213 38.2111C84.6497 38.2111 84.5167 38.1839 84.4221 38.1297C84.3276 38.0754 84.2611 38.0045 84.2225 37.9169C84.184 37.8277 84.1648 37.6412 84.1648 37.3576V35.7529H83.8181V35.3852H84.1648V34.6945L84.6349 34.4109V35.3852H85.1102V35.7529H84.6349V37.3838C84.6349 37.5186 84.6427 37.6053 84.6585 37.6438C84.676 37.6823 84.7031 37.713 84.7399 37.7357C84.7784 37.7585 84.8327 37.7699 84.9027 37.7699C84.9553 37.7699 85.0244 37.7637 85.1102 37.7515ZM88.892 37.8303C88.7169 37.9791 88.548 38.0841 88.3852 38.1454C88.2241 38.2067 88.0507 38.2373 87.8652 38.2373C87.5588 38.2373 87.3233 38.1629 87.1587 38.0141C86.9941 37.8635 86.9118 37.6718 86.9118 37.439C86.9118 37.3024 86.9425 37.1781 87.0037 37.066C87.0668 36.9522 87.1482 36.8612 87.248 36.7929C87.3495 36.7246 87.4633 36.673 87.5894 36.638C87.6822 36.6134 87.8223 36.5898 88.0096 36.567C88.3913 36.5215 88.6723 36.4673 88.8526 36.4042C88.8544 36.3394 88.8553 36.2983 88.8553 36.2808C88.8553 36.0882 88.8106 35.9525 88.7213 35.8737C88.6005 35.7669 88.421 35.7135 88.1829 35.7135C87.9606 35.7135 87.796 35.7529 87.6892 35.8317C87.5841 35.9087 87.5062 36.0462 87.4555 36.244L86.9932 36.181C87.0353 35.9831 87.1044 35.8238 87.2007 35.703C87.297 35.5805 87.4362 35.4868 87.6183 35.422C87.8004 35.3555 88.0114 35.3222 88.2512 35.3222C88.4893 35.3222 88.6828 35.3502 88.8316 35.4062C88.9804 35.4623 89.0899 35.5332 89.1599 35.619C89.2299 35.703 89.279 35.8098 89.307 35.9394C89.3227 36.0199 89.3306 36.1652 89.3306 36.3753V37.0056C89.3306 37.4451 89.3402 37.7235 89.3595 37.8408C89.3805 37.9563 89.4208 38.0675 89.4803 38.1743H88.9866C88.9375 38.0763 88.906 37.9616 88.892 37.8303ZM88.8526 36.7745C88.681 36.8446 88.4237 36.9041 88.0805 36.9531C87.8862 36.9811 87.7487 37.0126 87.6682 37.0477C87.5877 37.0827 87.5255 37.1343 87.4817 37.2026C87.438 37.2691 87.4161 37.3435 87.4161 37.4258C87.4161 37.5519 87.4633 37.6569 87.5579 37.741C87.6542 37.825 87.7942 37.867 87.9781 37.867C88.1602 37.867 88.3221 37.8277 88.4639 37.7489C88.6058 37.6683 88.7099 37.5589 88.7765 37.4206C88.8272 37.3138 88.8526 37.1562 88.8526 36.9479V36.7745ZM88.5953 35.0386H88.2145L87.6078 34.3032H88.2407L88.5953 35.0386ZM91.5629 39.2432V35.3852H91.9936V35.7477C92.0952 35.6058 92.2099 35.4999 92.3377 35.4299C92.4655 35.3581 92.6204 35.3222 92.8025 35.3222C93.0406 35.3222 93.2507 35.3835 93.4328 35.506C93.6149 35.6286 93.7523 35.8019 93.8451 36.026C93.9379 36.2484 93.9843 36.4926 93.9843 36.7588C93.9843 37.0442 93.9327 37.3015 93.8294 37.5309C93.7278 37.7585 93.579 37.9336 93.3829 38.0561C93.1886 38.1769 92.9837 38.2373 92.7684 38.2373C92.6108 38.2373 92.469 38.2041 92.3429 38.1375C92.2186 38.071 92.1162 37.987 92.0357 37.8854V39.2432H91.5629ZM91.991 36.7955C91.991 37.1545 92.0637 37.4197 92.209 37.5913C92.3543 37.7629 92.5303 37.8487 92.7369 37.8487C92.947 37.8487 93.1264 37.7602 93.2752 37.5834C93.4258 37.4048 93.5011 37.1291 93.5011 36.7561C93.5011 36.4007 93.4276 36.1346 93.2805 35.9578C93.1352 35.7809 92.961 35.6925 92.7579 35.6925C92.5565 35.6925 92.3779 35.7871 92.2221 35.9761C92.068 36.1635 91.991 36.4366 91.991 36.7955ZM94.3809 36.7798C94.3809 36.2633 94.5245 35.8807 94.8116 35.6321C95.0515 35.4255 95.3439 35.3222 95.6888 35.3222C96.0722 35.3222 96.3856 35.4483 96.629 35.7004C96.8723 35.9508 96.994 36.2974 96.994 36.7404C96.994 37.0993 96.9397 37.3821 96.8312 37.5887C96.7244 37.7935 96.5677 37.9528 96.3611 38.0666C96.1562 38.1804 95.9321 38.2373 95.6888 38.2373C95.2983 38.2373 94.9823 38.1122 94.7407 37.8618C94.5008 37.6114 94.3809 37.2508 94.3809 36.7798ZM94.8668 36.7798C94.8668 37.1369 94.9447 37.4048 95.1005 37.5834C95.2563 37.7602 95.4524 37.8487 95.6888 37.8487C95.9234 37.8487 96.1186 37.7594 96.2744 37.5808C96.4302 37.4022 96.5082 37.1299 96.5082 36.764C96.5082 36.4191 96.4294 36.1582 96.2718 35.9814C96.116 35.8028 95.9216 35.7135 95.6888 35.7135C95.4524 35.7135 95.2563 35.8019 95.1005 35.9788C94.9447 36.1556 94.8668 36.4226 94.8668 36.7798ZM97.5455 38.1743V35.3852H97.971V35.8081C98.0795 35.6102 98.1793 35.4798 98.2704 35.4167C98.3632 35.3537 98.4647 35.3222 98.575 35.3222C98.7343 35.3222 98.8963 35.373 99.0609 35.4745L98.8981 35.9131C98.7825 35.8448 98.6669 35.8107 98.5514 35.8107C98.4481 35.8107 98.3553 35.8422 98.273 35.9052C98.1907 35.9665 98.1321 36.0523 98.097 36.1626C98.0445 36.3307 98.0183 36.5145 98.0183 36.7141V38.1743H97.5455ZM100.374 37.7515L100.442 38.1691C100.309 38.1971 100.19 38.2111 100.085 38.2111C99.9135 38.2111 99.7805 38.1839 99.6859 38.1297C99.5914 38.0754 99.5248 38.0045 99.4863 37.9169C99.4478 37.8277 99.4286 37.6412 99.4286 37.3576V35.7529H99.0819V35.3852H99.4286V34.6945L99.8987 34.4109V35.3852H100.374V35.7529H99.8987V37.3838C99.8987 37.5186 99.9065 37.6053 99.9223 37.6438C99.9398 37.6823 99.9669 37.713 100.004 37.7357C100.042 37.7585 100.096 37.7699 100.167 37.7699C100.219 37.7699 100.288 37.7637 100.374 37.7515ZM102.748 37.2761L103.237 37.3365C103.16 37.6219 103.017 37.8434 102.809 38.001C102.6 38.1586 102.334 38.2373 102.01 38.2373C101.602 38.2373 101.278 38.1122 101.038 37.8618C100.8 37.6097 100.681 37.2569 100.681 36.8034C100.681 36.3342 100.802 35.97 101.044 35.7109C101.285 35.4518 101.599 35.3222 101.984 35.3222C102.357 35.3222 102.661 35.4491 102.898 35.703C103.134 35.9569 103.252 36.3141 103.252 36.7745C103.252 36.8025 103.252 36.8446 103.25 36.9006H101.17C101.187 37.207 101.274 37.4416 101.43 37.6044C101.586 37.7672 101.78 37.8487 102.013 37.8487C102.186 37.8487 102.334 37.8031 102.457 37.7121C102.579 37.6211 102.676 37.4757 102.748 37.2761ZM101.196 36.5119H102.753C102.732 36.2773 102.673 36.1013 102.575 35.984C102.424 35.8019 102.229 35.7109 101.989 35.7109C101.772 35.7109 101.589 35.7836 101.44 35.9289C101.293 36.0742 101.212 36.2685 101.196 36.5119ZM101.706 35.0386L102.055 34.3032H102.675L102.097 35.0386H101.706ZM105.742 37.2761L106.231 37.3365C106.154 37.6219 106.011 37.8434 105.802 38.001C105.594 38.1586 105.328 38.2373 105.004 38.2373C104.596 38.2373 104.272 38.1122 104.032 37.8618C103.794 37.6097 103.675 37.2569 103.675 36.8034C103.675 36.3342 103.796 35.97 104.038 35.7109C104.279 35.4518 104.593 35.3222 104.978 35.3222C105.351 35.3222 105.655 35.4491 105.892 35.703C106.128 35.9569 106.246 36.3141 106.246 36.7745C106.246 36.8025 106.245 36.8446 106.244 36.9006H104.164C104.181 37.207 104.268 37.4416 104.424 37.6044C104.58 37.7672 104.774 37.8487 105.007 37.8487C105.18 37.8487 105.328 37.8031 105.451 37.7121C105.573 37.6211 105.67 37.4757 105.742 37.2761ZM104.19 36.5119H105.747C105.726 36.2773 105.667 36.1013 105.569 35.984C105.418 35.8019 105.223 35.7109 104.983 35.7109C104.766 35.7109 104.583 35.7836 104.434 35.9289C104.287 36.0742 104.206 36.2685 104.19 36.5119ZM110.133 38.1743V37.8224C109.956 38.099 109.696 38.2373 109.353 38.2373C109.131 38.2373 108.926 38.1761 108.739 38.0535C108.553 37.931 108.409 37.7602 108.305 37.5414C108.204 37.3208 108.153 37.0678 108.153 36.7824C108.153 36.504 108.199 36.2519 108.292 36.026C108.385 35.7984 108.524 35.6242 108.71 35.5034C108.895 35.3826 109.103 35.3222 109.332 35.3222C109.5 35.3222 109.65 35.3581 109.781 35.4299C109.913 35.4999 110.019 35.5918 110.102 35.7056V34.3242H110.572V38.1743H110.133ZM108.639 36.7824C108.639 37.1396 108.714 37.4066 108.865 37.5834C109.015 37.7602 109.193 37.8487 109.398 37.8487C109.604 37.8487 109.779 37.7646 109.923 37.5965C110.068 37.4267 110.141 37.1685 110.141 36.8218C110.141 36.4401 110.068 36.16 109.92 35.9814C109.773 35.8028 109.592 35.7135 109.377 35.7135C109.167 35.7135 108.991 35.7993 108.849 35.9709C108.709 36.1425 108.639 36.413 108.639 36.7824ZM113.227 37.2761L113.715 37.3365C113.638 37.6219 113.496 37.8434 113.287 38.001C113.079 38.1586 112.813 38.2373 112.489 38.2373C112.081 38.2373 111.757 38.1122 111.517 37.8618C111.279 37.6097 111.16 37.2569 111.16 36.8034C111.16 36.3342 111.281 35.97 111.522 35.7109C111.764 35.4518 112.077 35.3222 112.463 35.3222C112.836 35.3222 113.14 35.4491 113.377 35.703C113.613 35.9569 113.731 36.3141 113.731 36.7745C113.731 36.8025 113.73 36.8446 113.729 36.9006H111.649C111.666 37.207 111.753 37.4416 111.909 37.6044C112.064 37.7672 112.259 37.8487 112.492 37.8487C112.665 37.8487 112.813 37.8031 112.935 37.7121C113.058 37.6211 113.155 37.4757 113.227 37.2761ZM111.675 36.5119H113.232C113.211 36.2773 113.152 36.1013 113.054 35.984C112.903 35.8019 112.708 35.7109 112.468 35.7109C112.251 35.7109 112.068 35.7836 111.919 35.9289C111.772 36.0742 111.691 36.2685 111.675 36.5119ZM116.841 37.7515L116.909 38.1691C116.776 38.1971 116.657 38.2111 116.552 38.2111C116.38 38.2111 116.247 38.1839 116.153 38.1297C116.058 38.0754 115.991 38.0045 115.953 37.9169C115.914 37.8277 115.895 37.6412 115.895 37.3576V35.7529H115.549V35.3852H115.895V34.6945L116.365 34.4109V35.3852H116.841V35.7529H116.365V37.3838C116.365 37.5186 116.373 37.6053 116.389 37.6438C116.406 37.6823 116.434 37.713 116.47 37.7357C116.509 37.7585 116.563 37.7699 116.633 37.7699C116.686 37.7699 116.755 37.7637 116.841 37.7515ZM117.13 36.7798C117.13 36.2633 117.273 35.8807 117.56 35.6321C117.8 35.4255 118.092 35.3222 118.437 35.3222C118.821 35.3222 119.134 35.4483 119.378 35.7004C119.621 35.9508 119.743 36.2974 119.743 36.7404C119.743 37.0993 119.688 37.3821 119.58 37.5887C119.473 37.7935 119.316 37.9528 119.11 38.0666C118.905 38.1804 118.681 38.2373 118.437 38.2373C118.047 38.2373 117.731 38.1122 117.489 37.8618C117.249 37.6114 117.13 37.2508 117.13 36.7798ZM117.615 36.7798C117.615 37.1369 117.693 37.4048 117.849 37.5834C118.005 37.7602 118.201 37.8487 118.437 37.8487C118.672 37.8487 118.867 37.7594 119.023 37.5808C119.179 37.4022 119.257 37.1299 119.257 36.764C119.257 36.4191 119.178 36.1582 119.02 35.9814C118.865 35.8028 118.67 35.7135 118.437 35.7135C118.201 35.7135 118.005 35.8019 117.849 35.9788C117.693 36.1556 117.615 36.4226 117.615 36.7798ZM122.127 38.1743V37.7646C121.91 38.0798 121.615 38.2373 121.242 38.2373C121.078 38.2373 120.924 38.2058 120.78 38.1428C120.638 38.0798 120.532 38.001 120.462 37.9064C120.394 37.8101 120.346 37.6928 120.318 37.5545C120.299 37.4617 120.289 37.3147 120.289 37.1133V35.3852H120.762V36.9321C120.762 37.179 120.771 37.3453 120.791 37.4311C120.82 37.5554 120.883 37.6534 120.98 37.7252C121.076 37.7953 121.195 37.8303 121.337 37.8303C121.479 37.8303 121.612 37.7944 121.736 37.7226C121.86 37.6491 121.948 37.5501 121.999 37.4258C122.051 37.2998 122.077 37.1177 122.077 36.8796V35.3852H122.55V38.1743H122.127ZM123.104 37.3418L123.572 37.2683C123.598 37.4556 123.671 37.5992 123.79 37.699C123.91 37.7988 124.079 37.8487 124.294 37.8487C124.511 37.8487 124.672 37.8049 124.777 37.7173C124.882 37.6281 124.935 37.5239 124.935 37.4048C124.935 37.298 124.888 37.214 124.796 37.1527C124.731 37.1107 124.57 37.0573 124.312 36.9925C123.966 36.905 123.725 36.8297 123.59 36.7666C123.457 36.7019 123.355 36.6134 123.285 36.5014C123.217 36.3876 123.183 36.2624 123.183 36.1258C123.183 36.0015 123.211 35.8868 123.267 35.7818C123.325 35.675 123.403 35.5866 123.501 35.5165C123.574 35.4623 123.674 35.4167 123.8 35.38C123.928 35.3415 124.065 35.3222 124.21 35.3222C124.429 35.3222 124.62 35.3537 124.785 35.4167C124.951 35.4798 125.074 35.5656 125.153 35.6741C125.232 35.7809 125.286 35.9245 125.316 36.1048L124.853 36.1679C124.832 36.0243 124.771 35.9122 124.669 35.8317C124.57 35.7512 124.428 35.7109 124.244 35.7109C124.027 35.7109 123.872 35.7468 123.779 35.8186C123.686 35.8904 123.64 35.9744 123.64 36.0707C123.64 36.132 123.659 36.1871 123.698 36.2361C123.736 36.2869 123.797 36.3289 123.879 36.3622C123.926 36.3797 124.065 36.42 124.297 36.483C124.631 36.5723 124.864 36.6458 124.995 36.7036C125.128 36.7596 125.232 36.8419 125.308 36.9505C125.383 37.059 125.421 37.1938 125.421 37.3549C125.421 37.5125 125.374 37.6613 125.281 37.8014C125.19 37.9397 125.058 38.0474 124.885 38.1244C124.712 38.1997 124.515 38.2373 124.297 38.2373C123.934 38.2373 123.657 38.1621 123.467 38.0115C123.278 37.8609 123.157 37.6377 123.104 37.3418Z" fill="black"/>
</svg>
