<svg width="247" height="322" viewBox="0 0 247 322" fill="none" xmlns="http://www.w3.org/2000/svg">
<path d="M81.9019 99.7848V6L189.301 80.8766V185.25M95.5158 99.7848V35.4968L165.098 84.6582V162.56M107.617 99.7848V64.2373L151.484 95.2468V139.87" stroke="#53A2DA" stroke-width="6.05063"/>
<path d="M132.576 153.484L136.358 112.642L4 178.443V308.532M33.4968 185.25L115.937 142.896M115.937 161.804L33.4968 203.402M115.937 178.443L33.4968 220.797M112.155 199.62L30.4715 241.975M112.155 220.797L30.4715 261.639M112.155 236.68L30.4715 280.547M109.13 257.101L27.4462 300.212M109.13 277.522L27.4462 318.364" stroke="#F29222" stroke-width="6.05063"/>
<path d="M147.703 306.263V183.737L190.813 211.109M243 306.263V244.244L190.813 211.109M218.041 248.782V306.263M190.813 211.109V306.263M164.342 216.26V306.263" stroke="#7FBB48" stroke-width="6.05063"/>
</svg>
