<svg width="162" height="41" viewBox="0 0 162 41" fill="none" xmlns="http://www.w3.org/2000/svg">
<path d="M35.5151 20.4725H41.122C42.0564 20.4725 42.7727 20.7039 43.2708 21.1667C43.7733 21.6295 44.0246 22.2026 44.0246 22.8858C44.0246 23.4588 43.8461 23.9503 43.489 24.3603C43.251 24.6336 42.9028 24.8496 42.4443 25.0082C43.1408 25.1757 43.6521 25.4645 43.9783 25.8744C44.3089 26.2799 44.4742 26.7912 44.4742 27.4084C44.4742 27.9109 44.3574 28.3627 44.1238 28.7638C43.8901 29.1649 43.5706 29.4823 43.165 29.7159C42.9138 29.8614 42.5347 29.9672 42.0278 30.0333C41.3534 30.1214 40.906 30.1655 40.6856 30.1655H35.5151V20.4725ZM38.5367 24.2743H39.8393C40.3065 24.2743 40.6305 24.195 40.8112 24.0363C40.9963 23.8732 41.0889 23.6396 41.0889 23.3354C41.0889 23.0533 40.9963 22.8329 40.8112 22.6742C40.6305 22.5155 40.3131 22.4362 39.8591 22.4362H38.5367V24.2743ZM38.5367 28.0828H40.0641C40.5798 28.0828 40.9434 27.9924 41.155 27.8117C41.3666 27.6266 41.4724 27.3797 41.4724 27.0712C41.4724 26.7846 41.3666 26.5554 41.155 26.3835C40.9478 26.2072 40.582 26.119 40.0574 26.119H38.5367V28.0828ZM46.7183 20.4725H54.7451V22.542H49.7201V24.0826H54.3815V26.0595H49.7201V27.9704H54.8906V30.1655H46.7183V20.4725ZM56.6652 26.9588L59.515 26.7802C59.5767 27.2431 59.7023 27.5957 59.8919 27.8381C60.2004 28.2304 60.6412 28.4266 61.2142 28.4266C61.6418 28.4266 61.9702 28.3274 62.1994 28.1291C62.433 27.9263 62.5498 27.6927 62.5498 27.4282C62.5498 27.1769 62.4396 26.9521 62.2193 26.7538C61.9989 26.5554 61.4875 26.3681 60.6853 26.1918C59.3717 25.8964 58.435 25.5041 57.8752 25.0148C57.311 24.5256 57.0289 23.9018 57.0289 23.1437C57.0289 22.6456 57.1722 22.1761 57.4587 21.7353C57.7496 21.2901 58.1838 20.9419 58.7612 20.6907C59.3431 20.435 60.1387 20.3072 61.1481 20.3072C62.3868 20.3072 63.3301 20.5386 63.978 21.0014C64.6304 21.4598 65.0183 22.1916 65.1417 23.1966L62.3184 23.3619C62.2435 22.9255 62.0848 22.6081 61.8424 22.4098C61.6043 22.2114 61.2737 22.1122 60.8506 22.1122C60.5024 22.1122 60.2401 22.1872 60.0638 22.337C59.8875 22.4825 59.7993 22.661 59.7993 22.8726C59.7993 23.0269 59.872 23.1657 60.0175 23.2891C60.1585 23.417 60.4935 23.536 61.0225 23.6462C62.3317 23.9283 63.2683 24.2148 63.8326 24.5057C64.4012 24.7922 64.8133 25.1493 65.069 25.5769C65.3291 26.0044 65.4591 26.4827 65.4591 27.0116C65.4591 27.6332 65.2872 28.2062 64.9434 28.7307C64.5995 29.2553 64.1191 29.6542 63.502 29.9275C62.8849 30.1964 62.1069 30.3308 61.168 30.3308C59.5194 30.3308 58.3777 30.0135 57.743 29.3787C57.1082 28.744 56.749 27.9373 56.6652 26.9588ZM66.9692 20.4725H76.0739V22.866H73.0191V30.1655H70.024V22.866H66.9692V20.4725ZM83.3192 20.4725H88.9261C89.8606 20.4725 90.5769 20.7039 91.075 21.1667C91.5775 21.6295 91.8287 22.2026 91.8287 22.8858C91.8287 23.4588 91.6502 23.9503 91.2932 24.3603C91.0551 24.6336 90.7069 24.8496 90.2485 25.0082C90.9449 25.1757 91.4562 25.4645 91.7824 25.8744C92.113 26.2799 92.2783 26.7912 92.2783 27.4084C92.2783 27.9109 92.1615 28.3627 91.9279 28.7638C91.6943 29.1649 91.3747 29.4823 90.9692 29.7159C90.7179 29.8614 90.3388 29.9672 89.8319 30.0333C89.1575 30.1214 88.7101 30.1655 88.4897 30.1655H83.3192V20.4725ZM86.3408 24.2743H87.6434C88.1106 24.2743 88.4346 24.195 88.6153 24.0363C88.8005 23.8732 88.893 23.6396 88.893 23.3354C88.893 23.0533 88.8005 22.8329 88.6153 22.6742C88.4346 22.5155 88.1172 22.4362 87.6632 22.4362H86.3408V24.2743ZM86.3408 28.0828H87.8682C88.3839 28.0828 88.7476 27.9924 88.9591 27.8117C89.1707 27.6266 89.2765 27.3797 89.2765 27.0712C89.2765 26.7846 89.1707 26.5554 88.9591 26.3835C88.752 26.2072 88.3861 26.119 87.8616 26.119H86.3408V28.0828ZM100.48 20.4725H103.468V26.2513C103.468 26.8243 103.378 27.3665 103.197 27.8778C103.021 28.3847 102.741 28.8299 102.358 29.2134C101.978 29.5925 101.58 29.8592 101.161 30.0135C100.579 30.2294 99.8803 30.3374 99.0648 30.3374C98.5931 30.3374 98.0774 30.3044 97.5176 30.2383C96.9622 30.1721 96.4972 30.0421 96.1225 29.8482C95.7478 29.6498 95.404 29.3699 95.091 29.0084C94.7825 28.647 94.5709 28.2745 94.4563 27.891C94.2712 27.2739 94.1786 26.7273 94.1786 26.2513V20.4725H97.1672V26.3901C97.1672 26.9191 97.3126 27.3334 97.6036 27.6332C97.8989 27.9285 98.3066 28.0762 98.8268 28.0762C99.3425 28.0762 99.7458 27.9307 100.037 27.6398C100.332 27.3444 100.48 26.9279 100.48 26.3901V20.4725ZM106.248 20.4725H109.25V30.1655H106.248V20.4725ZM112.082 20.4725H115.078V27.7786H119.752V30.1655H112.082V20.4725ZM121.831 20.4725H126.281C127.158 20.4725 127.865 20.5915 128.403 20.8295C128.945 21.0675 129.393 21.4092 129.745 21.8544C130.098 22.2996 130.354 22.8175 130.512 23.4082C130.671 23.9988 130.75 24.6247 130.75 25.2859C130.75 26.3218 130.631 27.1263 130.393 27.6993C130.16 28.2679 129.834 28.7462 129.415 29.1341C128.996 29.5176 128.546 29.7732 128.066 29.9011C127.409 30.0774 126.814 30.1655 126.281 30.1655H121.831V20.4725ZM124.826 22.6676V27.9638H125.56C126.186 27.9638 126.631 27.8954 126.896 27.7588C127.16 27.6177 127.367 27.3753 127.517 27.0315C127.667 26.6833 127.742 26.1212 127.742 25.3454C127.742 24.3184 127.574 23.6153 127.239 23.2362C126.904 22.8572 126.349 22.6676 125.573 22.6676H124.826ZM133.127 20.4725H136.129V30.1655H133.127V20.4725ZM138.981 20.4725H141.778L145.428 25.8347V20.4725H148.251V30.1655H145.428L141.798 24.8429V30.1655H138.981V20.4725ZM155.791 26.6546V24.638H160.419V28.7704C159.533 29.3743 158.749 29.7864 158.066 30.0068C157.387 30.2228 156.58 30.3308 155.646 30.3308C154.495 30.3308 153.556 30.1347 152.829 29.7424C152.106 29.3501 151.544 28.766 151.143 27.9902C150.746 27.2144 150.548 26.324 150.548 25.319C150.548 24.2611 150.766 23.342 151.202 22.5618C151.639 21.7772 152.278 21.1821 153.12 20.7766C153.777 20.4636 154.66 20.3072 155.771 20.3072C156.842 20.3072 157.642 20.4041 158.171 20.5981C158.705 20.792 159.145 21.094 159.494 21.5039C159.846 21.9095 160.111 22.4252 160.287 23.0511L157.398 23.5668C157.279 23.201 157.076 22.9211 156.789 22.7271C156.507 22.5332 156.146 22.4362 155.705 22.4362C155.048 22.4362 154.524 22.6654 154.131 23.1238C153.744 23.5779 153.55 24.2986 153.55 25.2859C153.55 26.335 153.746 27.0844 154.138 27.534C154.535 27.9836 155.086 28.2084 155.791 28.2084C156.126 28.2084 156.446 28.1599 156.75 28.0629C157.054 27.966 157.402 27.8007 157.794 27.567V26.6546H155.791Z" fill="white"/>
<path d="M10.8528 12.8617V1.00003L24.4364 10.4703V23.6712M12.5747 12.8617V4.73073L21.3753 10.9486V20.8014M14.1052 12.8617V8.36576L19.6535 12.2878V17.9316" stroke="#53A2DA" stroke-width="0.765271"/>
<path d="M17.262 19.6535L17.7403 14.4879L1 22.8102V39.2635M4.73069 23.6711L15.1575 18.3142M15.1575 20.7057L4.73069 25.9669M15.1575 22.8102L4.73069 28.1671M14.6792 25.4887L4.34806 30.8455M14.6792 28.1671L4.34806 33.3327M14.6792 30.1759L4.34806 35.7241M14.2966 32.7587L3.96542 38.2113M14.2966 35.3415L3.96542 40.5071" stroke="#F29222" stroke-width="0.765271"/>
<path d="M19.1752 38.9766V23.4798L24.6278 26.9418M31.2282 38.9766V31.1325L24.6278 26.9418M28.0715 31.7065V38.9766M24.6278 26.9418V38.9766M21.2797 27.5932V38.9766" stroke="#7FBB48" stroke-width="0.765271"/>
<path d="M56.4118 37.7459V33.8958H56.9213V37.2916H58.8175V37.7459H56.4118ZM61.2756 36.8477L61.7641 36.9081C61.6871 37.1935 61.5444 37.415 61.336 37.5726C61.1277 37.7302 60.8616 37.8089 60.5377 37.8089C60.1297 37.8089 59.8058 37.6838 59.566 37.4334C59.3278 37.1813 59.2088 36.8285 59.2088 36.375C59.2088 35.9058 59.3296 35.5416 59.5712 35.2825C59.8128 35.0234 60.1262 34.8938 60.5114 34.8938C60.8843 34.8938 61.189 35.0207 61.4253 35.2746C61.6617 35.5285 61.7799 35.8856 61.7799 36.3461C61.7799 36.3741 61.779 36.4162 61.7773 36.4722H59.6973C59.7148 36.7786 59.8014 37.0132 59.9573 37.176C60.1131 37.3388 60.3074 37.4203 60.5403 37.4203C60.7136 37.4203 60.8616 37.3747 60.9841 37.2837C61.1067 37.1926 61.2039 37.0473 61.2756 36.8477ZM59.7235 36.0835H61.2809C61.2599 35.8489 61.2004 35.6729 61.1023 35.5556C60.9517 35.3735 60.7565 35.2825 60.5167 35.2825C60.2996 35.2825 60.1166 35.3551 59.9678 35.5005C59.8207 35.6458 59.7393 35.8401 59.7235 36.0835ZM63.8467 37.7459V33.8958H64.3195V37.7459H63.8467ZM64.8789 36.3514C64.8789 35.8349 65.0224 35.4523 65.3096 35.2037C65.5494 34.9971 65.8418 34.8938 66.1867 34.8938C66.5702 34.8938 66.8836 35.0199 67.1269 35.272C67.3703 35.5223 67.492 35.869 67.492 36.312C67.492 36.6709 67.4377 36.9537 67.3292 37.1603C67.2224 37.3651 67.0657 37.5244 66.8591 37.6382C66.6542 37.752 66.4301 37.8089 66.1867 37.8089C65.7963 37.8089 65.4803 37.6838 65.2387 37.4334C64.9988 37.183 64.8789 36.8223 64.8789 36.3514ZM65.3647 36.3514C65.3647 36.7085 65.4426 36.9764 65.5985 37.155C65.7543 37.3318 65.9504 37.4203 66.1867 37.4203C66.4213 37.4203 66.6166 37.331 66.7724 37.1524C66.9282 36.9738 67.0061 36.7015 67.0061 36.3356C67.0061 35.9907 66.9273 35.7298 66.7698 35.553C66.6139 35.3744 66.4196 35.2851 66.1867 35.2851C65.9504 35.2851 65.7543 35.3735 65.5985 35.5504C65.4426 35.7272 65.3647 35.9942 65.3647 36.3514ZM67.9621 37.977L68.4217 38.0453C68.4409 38.1871 68.4943 38.2904 68.5819 38.3552C68.6992 38.4427 68.8594 38.4865 69.0625 38.4865C69.2813 38.4865 69.4503 38.4427 69.5694 38.3552C69.6884 38.2677 69.7689 38.1451 69.811 37.9875C69.8355 37.8912 69.8469 37.689 69.8451 37.3809C69.6385 37.6242 69.3811 37.7459 69.073 37.7459C68.6896 37.7459 68.3928 37.6076 68.1827 37.331C67.9726 37.0543 67.8675 36.7225 67.8675 36.3356C67.8675 36.0695 67.9157 35.8244 68.012 35.6003C68.1083 35.3744 68.2475 35.2002 68.4296 35.0776C68.6134 34.9551 68.8287 34.8938 69.0756 34.8938C69.4048 34.8938 69.6762 35.0269 69.8898 35.293V34.9568H70.3257V37.3677C70.3257 37.8019 70.2811 38.1092 70.1918 38.2895C70.1042 38.4716 69.9642 38.6152 69.7716 38.7203C69.5807 38.8253 69.3452 38.8778 69.0651 38.8778C68.7325 38.8778 68.4637 38.8025 68.2589 38.652C68.054 38.5031 67.9551 38.2782 67.9621 37.977ZM68.3534 36.3015C68.3534 36.6674 68.4261 36.9344 68.5714 37.1025C68.7167 37.2706 68.8988 37.3546 69.1176 37.3546C69.3347 37.3546 69.5168 37.2714 69.6639 37.1051C69.811 36.937 69.8845 36.6744 69.8845 36.3172C69.8845 35.9758 69.8083 35.7184 69.656 35.5451C69.5054 35.3718 69.3234 35.2851 69.1098 35.2851C68.8997 35.2851 68.7211 35.3709 68.574 35.5425C68.4269 35.7123 68.3534 35.9653 68.3534 36.3015ZM72.952 36.8477L73.4405 36.9081C73.3634 37.1935 73.2207 37.415 73.0124 37.5726C72.804 37.7302 72.5379 37.8089 72.214 37.8089C71.806 37.8089 71.4821 37.6838 71.2423 37.4334C71.0042 37.1813 70.8851 36.8285 70.8851 36.375C70.8851 35.9058 71.0059 35.5416 71.2475 35.2825C71.4891 35.0234 71.8025 34.8938 72.1877 34.8938C72.5607 34.8938 72.8653 35.0207 73.1017 35.2746C73.338 35.5285 73.4562 35.8856 73.4562 36.3461C73.4562 36.3741 73.4553 36.4162 73.4536 36.4722H71.3736C71.3911 36.7786 71.4778 37.0132 71.6336 37.176C71.7894 37.3388 71.9838 37.4203 72.2166 37.4203C72.3899 37.4203 72.5379 37.3747 72.6605 37.2837C72.783 37.1926 72.8802 37.0473 72.952 36.8477ZM71.3999 36.0835H72.9572C72.9362 35.8489 72.8767 35.6729 72.7786 35.5556C72.6281 35.3735 72.4328 35.2825 72.193 35.2825C71.9759 35.2825 71.7929 35.3551 71.6441 35.5005C71.497 35.6458 71.4156 35.8401 71.3999 36.0835ZM74.0366 37.7459V34.9568H74.4594V35.3481C74.547 35.2116 74.6634 35.1021 74.8087 35.0199C74.954 34.9358 75.1195 34.8938 75.3051 34.8938C75.5117 34.8938 75.6806 34.9367 75.812 35.0225C75.945 35.1083 76.0387 35.2282 76.093 35.3823C76.3136 35.0566 76.6007 34.8938 76.9544 34.8938C77.231 34.8938 77.4437 34.9708 77.5926 35.1249C77.7414 35.2772 77.8158 35.5127 77.8158 35.8314V37.7459H77.3457V35.9889C77.3457 35.7999 77.3299 35.6642 77.2984 35.5819C77.2687 35.4978 77.2135 35.4304 77.133 35.3797C77.0524 35.3289 76.9579 35.3035 76.8493 35.3035C76.6532 35.3035 76.4904 35.3692 76.3608 35.5005C76.2313 35.63 76.1665 35.8384 76.1665 36.1255V37.7459H75.6938V35.9338C75.6938 35.7237 75.6553 35.5661 75.5782 35.4611C75.5012 35.356 75.3751 35.3035 75.2 35.3035C75.067 35.3035 74.9435 35.3385 74.8297 35.4085C74.7177 35.4786 74.6363 35.581 74.5855 35.7158C74.5347 35.8506 74.5093 36.045 74.5093 36.2988V37.7459H74.0366ZM80.4263 36.8477L80.9148 36.9081C80.8377 37.1935 80.695 37.415 80.4867 37.5726C80.2783 37.7302 80.0122 37.8089 79.6883 37.8089C79.2804 37.8089 78.9565 37.6838 78.7166 37.4334C78.4785 37.1813 78.3594 36.8285 78.3594 36.375C78.3594 35.9058 78.4802 35.5416 78.7218 35.2825C78.9635 35.0234 79.2769 34.8938 79.662 34.8938C80.035 34.8938 80.3396 35.0207 80.576 35.2746C80.8123 35.5285 80.9305 35.8856 80.9305 36.3461C80.9305 36.3741 80.9297 36.4162 80.9279 36.4722H78.8479C78.8654 36.7786 78.9521 37.0132 79.1079 37.176C79.2637 37.3388 79.4581 37.4203 79.6909 37.4203C79.8643 37.4203 80.0122 37.3747 80.1348 37.2837C80.2573 37.1926 80.3545 37.0473 80.4263 36.8477ZM78.8742 36.0835H80.4315C80.4105 35.8489 80.351 35.6729 80.253 35.5556C80.1024 35.3735 79.9072 35.2825 79.6673 35.2825C79.4502 35.2825 79.2672 35.3551 79.1184 35.5005C78.9713 35.6458 78.8899 35.8401 78.8742 36.0835ZM81.5109 37.7459V34.9568H81.9364V35.3534C82.1412 35.047 82.4371 34.8938 82.8241 34.8938C82.9921 34.8938 83.1462 34.9244 83.2863 34.9857C83.4281 35.0452 83.534 35.124 83.6041 35.2221C83.6741 35.3201 83.7231 35.4366 83.7511 35.5714C83.7686 35.6589 83.7774 35.8121 83.7774 36.031V37.7459H83.3047V36.0494C83.3047 35.8568 83.2863 35.7132 83.2495 35.6186C83.2127 35.5223 83.1471 35.4462 83.0525 35.3902C82.9597 35.3324 82.8503 35.3035 82.7243 35.3035C82.5229 35.3035 82.3487 35.3674 82.2016 35.4952C82.0563 35.623 81.9837 35.8655 81.9837 36.2227V37.7459H81.5109ZM85.537 37.3231L85.6053 37.7407C85.4722 37.7687 85.3531 37.7827 85.2481 37.7827C85.0765 37.7827 84.9434 37.7555 84.8489 37.7013C84.7544 37.647 84.6878 37.5761 84.6493 37.4885C84.6108 37.3992 84.5915 37.2128 84.5915 36.9291V35.3245H84.2449V34.9568H84.5915V34.2661L85.0616 33.9825V34.9568H85.537V35.3245H85.0616V36.9554C85.0616 37.0902 85.0695 37.1769 85.0853 37.2154C85.1028 37.2539 85.1299 37.2846 85.1667 37.3073C85.2052 37.3301 85.2595 37.3415 85.3295 37.3415C85.382 37.3415 85.4512 37.3353 85.537 37.3231ZM89.3188 37.4019C89.1437 37.5507 88.9747 37.6557 88.8119 37.717C88.6508 37.7783 88.4775 37.8089 88.2919 37.8089C87.9855 37.8089 87.75 37.7345 87.5855 37.5857C87.4209 37.4351 87.3386 37.2434 87.3386 37.0106C87.3386 36.874 87.3692 36.7497 87.4305 36.6376C87.4935 36.5238 87.5749 36.4328 87.6747 36.3645C87.7763 36.2962 87.8901 36.2446 88.0162 36.2096C88.109 36.185 88.249 36.1614 88.4364 36.1386C88.818 36.0931 89.0991 36.0388 89.2794 35.9758C89.2811 35.911 89.282 35.8699 89.282 35.8524C89.282 35.6598 89.2374 35.5241 89.1481 35.4453C89.0273 35.3385 88.8478 35.2851 88.6097 35.2851C88.3873 35.2851 88.2228 35.3245 88.116 35.4033C88.0109 35.4803 87.933 35.6178 87.8822 35.8156L87.42 35.7526C87.462 35.5547 87.5312 35.3954 87.6275 35.2746C87.7238 35.152 87.863 35.0584 88.045 34.9936C88.2271 34.9271 88.4381 34.8938 88.678 34.8938C88.9161 34.8938 89.1096 34.9218 89.2584 34.9778C89.4072 35.0339 89.5166 35.1048 89.5867 35.1906C89.6567 35.2746 89.7057 35.3814 89.7337 35.511C89.7495 35.5915 89.7574 35.7368 89.7574 35.9469V36.5772C89.7574 37.0167 89.767 37.2951 89.7863 37.4124C89.8073 37.5279 89.8475 37.6391 89.9071 37.7459H89.4133C89.3643 37.6479 89.3328 37.5332 89.3188 37.4019ZM89.2794 36.3461C89.1078 36.4162 88.8504 36.4757 88.5073 36.5247C88.3129 36.5527 88.1755 36.5842 88.0949 36.6192C88.0144 36.6543 87.9523 36.7059 87.9085 36.7742C87.8647 36.8407 87.8428 36.9151 87.8428 36.9974C87.8428 37.1235 87.8901 37.2285 87.9846 37.3126C88.0809 37.3966 88.221 37.4386 88.4048 37.4386C88.5869 37.4386 88.7489 37.3992 88.8907 37.3205C89.0325 37.2399 89.1367 37.1305 89.2032 36.9922C89.254 36.8854 89.2794 36.7278 89.2794 36.5195V36.3461ZM89.022 34.6102H88.6412L88.0345 33.8748H88.6675L89.022 34.6102ZM91.9897 38.8148V34.9568H92.4204V35.3193C92.5219 35.1774 92.6366 35.0715 92.7644 35.0015C92.8922 34.9297 93.0472 34.8938 93.2293 34.8938C93.4674 34.8938 93.6775 34.9551 93.8596 35.0776C94.0417 35.2002 94.1791 35.3735 94.2719 35.5976C94.3647 35.82 94.4111 36.0642 94.4111 36.3304C94.4111 36.6157 94.3594 36.8731 94.2561 37.1025C94.1546 37.3301 94.0058 37.5052 93.8097 37.6277C93.6153 37.7485 93.4105 37.8089 93.1951 37.8089C93.0376 37.8089 92.8957 37.7757 92.7697 37.7091C92.6454 37.6426 92.5429 37.5586 92.4624 37.457V38.8148H91.9897ZM92.4178 36.3671C92.4178 36.726 92.4904 36.9913 92.6357 37.1629C92.7811 37.3345 92.957 37.4203 93.1636 37.4203C93.3737 37.4203 93.5532 37.3318 93.702 37.155C93.8526 36.9764 93.9279 36.7007 93.9279 36.3277C93.9279 35.9723 93.8543 35.7062 93.7073 35.5294C93.5619 35.3525 93.3877 35.2641 93.1846 35.2641C92.9833 35.2641 92.8047 35.3586 92.6489 35.5477C92.4948 35.7351 92.4178 36.0082 92.4178 36.3671ZM94.8077 36.3514C94.8077 35.8349 94.9512 35.4523 95.2384 35.2037C95.4782 34.9971 95.7706 34.8938 96.1155 34.8938C96.499 34.8938 96.8124 35.0199 97.0557 35.272C97.2991 35.5223 97.4208 35.869 97.4208 36.312C97.4208 36.6709 97.3665 36.9537 97.2579 37.1603C97.1511 37.3651 96.9944 37.5244 96.7878 37.6382C96.583 37.752 96.3589 37.8089 96.1155 37.8089C95.7251 37.8089 95.4091 37.6838 95.1674 37.4334C94.9276 37.183 94.8077 36.8223 94.8077 36.3514ZM95.2935 36.3514C95.2935 36.7085 95.3714 36.9764 95.5272 37.155C95.6831 37.3318 95.8792 37.4203 96.1155 37.4203C96.3501 37.4203 96.5454 37.331 96.7012 37.1524C96.857 36.9738 96.9349 36.7015 96.9349 36.3356C96.9349 35.9907 96.8561 35.7298 96.6986 35.553C96.5427 35.3744 96.3484 35.2851 96.1155 35.2851C95.8792 35.2851 95.6831 35.3735 95.5272 35.5504C95.3714 35.7272 95.2935 35.9942 95.2935 36.3514ZM97.9723 37.7459V34.9568H98.3977V35.3797C98.5063 35.1818 98.6061 35.0514 98.6971 34.9883C98.7899 34.9253 98.8915 34.8938 99.0018 34.8938C99.1611 34.8938 99.3231 34.9446 99.4876 35.0461L99.3248 35.4847C99.2093 35.4164 99.0937 35.3823 98.9781 35.3823C98.8748 35.3823 98.7821 35.4138 98.6998 35.4768C98.6175 35.5381 98.5588 35.6239 98.5238 35.7342C98.4713 35.9023 98.445 36.0861 98.445 36.2857V37.7459H97.9723ZM100.801 37.3231L100.869 37.7407C100.736 37.7687 100.617 37.7827 100.512 37.7827C100.34 37.7827 100.207 37.7555 100.113 37.7013C100.018 37.647 99.9516 37.5761 99.9131 37.4885C99.8746 37.3992 99.8553 37.2128 99.8553 36.9291V35.3245H99.5086V34.9568H99.8553V34.2661L100.325 33.9825V34.9568H100.801V35.3245H100.325V36.9554C100.325 37.0902 100.333 37.1769 100.349 37.2154C100.367 37.2539 100.394 37.2846 100.43 37.3073C100.469 37.3301 100.523 37.3415 100.593 37.3415C100.646 37.3415 100.715 37.3353 100.801 37.3231ZM103.175 36.8477L103.663 36.9081C103.586 37.1935 103.444 37.415 103.235 37.5726C103.027 37.7302 102.761 37.8089 102.437 37.8089C102.029 37.8089 101.705 37.6838 101.465 37.4334C101.227 37.1813 101.108 36.8285 101.108 36.375C101.108 35.9058 101.229 35.5416 101.47 35.2825C101.712 35.0234 102.025 34.8938 102.411 34.8938C102.784 34.8938 103.088 35.0207 103.325 35.2746C103.561 35.5285 103.679 35.8856 103.679 36.3461C103.679 36.3741 103.678 36.4162 103.677 36.4722H101.597C101.614 36.7786 101.701 37.0132 101.857 37.176C102.012 37.3388 102.207 37.4203 102.44 37.4203C102.613 37.4203 102.761 37.3747 102.883 37.2837C103.006 37.1926 103.103 37.0473 103.175 36.8477ZM101.623 36.0835H103.18C103.159 35.8489 103.1 35.6729 103.002 35.5556C102.851 35.3735 102.656 35.2825 102.416 35.2825C102.199 35.2825 102.016 35.3551 101.867 35.5005C101.72 35.6458 101.639 35.8401 101.623 36.0835ZM102.132 34.6102L102.482 33.8748H103.101L102.524 34.6102H102.132ZM106.169 36.8477L106.657 36.9081C106.58 37.1935 106.438 37.415 106.229 37.5726C106.021 37.7302 105.755 37.8089 105.431 37.8089C105.023 37.8089 104.699 37.6838 104.459 37.4334C104.221 37.1813 104.102 36.8285 104.102 36.375C104.102 35.9058 104.223 35.5416 104.464 35.2825C104.706 35.0234 105.019 34.8938 105.405 34.8938C105.778 34.8938 106.082 35.0207 106.319 35.2746C106.555 35.5285 106.673 35.8856 106.673 36.3461C106.673 36.3741 106.672 36.4162 106.67 36.4722H104.59C104.608 36.7786 104.695 37.0132 104.85 37.176C105.006 37.3388 105.201 37.4203 105.433 37.4203C105.607 37.4203 105.755 37.3747 105.877 37.2837C106 37.1926 106.097 37.0473 106.169 36.8477ZM104.617 36.0835H106.174C106.153 35.8489 106.094 35.6729 105.995 35.5556C105.845 35.3735 105.65 35.2825 105.41 35.2825C105.193 35.2825 105.01 35.3551 104.861 35.5005C104.714 35.6458 104.632 35.8401 104.617 36.0835ZM110.56 37.7459V37.394C110.383 37.6706 110.123 37.8089 109.78 37.8089C109.558 37.8089 109.353 37.7477 109.165 37.6251C108.98 37.5025 108.835 37.3318 108.732 37.113C108.631 36.8924 108.58 36.6394 108.58 36.354C108.58 36.0756 108.626 35.8235 108.719 35.5976C108.812 35.37 108.951 35.1958 109.136 35.075C109.322 34.9542 109.53 34.8938 109.759 34.8938C109.927 34.8938 110.077 34.9297 110.208 35.0015C110.339 35.0715 110.446 35.1634 110.528 35.2772V33.8958H110.999V37.7459H110.56ZM109.066 36.354C109.066 36.7112 109.141 36.9782 109.291 37.155C109.442 37.3318 109.62 37.4203 109.825 37.4203C110.031 37.4203 110.206 37.3362 110.35 37.1681C110.495 36.9983 110.568 36.7401 110.568 36.3934C110.568 36.0117 110.494 35.7316 110.347 35.553C110.2 35.3744 110.019 35.2851 109.804 35.2851C109.593 35.2851 109.418 35.3709 109.276 35.5425C109.136 35.7141 109.066 35.9846 109.066 36.354ZM113.654 36.8477L114.142 36.9081C114.065 37.1935 113.922 37.415 113.714 37.5726C113.506 37.7302 113.24 37.8089 112.916 37.8089C112.508 37.8089 112.184 37.6838 111.944 37.4334C111.706 37.1813 111.587 36.8285 111.587 36.375C111.587 35.9058 111.708 35.5416 111.949 35.2825C112.191 35.0234 112.504 34.8938 112.889 34.8938C113.262 34.8938 113.567 35.0207 113.803 35.2746C114.04 35.5285 114.158 35.8856 114.158 36.3461C114.158 36.3741 114.157 36.4162 114.155 36.4722H112.075C112.093 36.7786 112.179 37.0132 112.335 37.176C112.491 37.3388 112.685 37.4203 112.918 37.4203C113.092 37.4203 113.24 37.3747 113.362 37.2837C113.485 37.1926 113.582 37.0473 113.654 36.8477ZM112.102 36.0835H113.659C113.638 35.8489 113.578 35.6729 113.48 35.5556C113.33 35.3735 113.135 35.2825 112.895 35.2825C112.678 35.2825 112.495 35.3551 112.346 35.5005C112.199 35.6458 112.117 35.8401 112.102 36.0835ZM117.267 37.3231L117.336 37.7407C117.203 37.7687 117.084 37.7827 116.978 37.7827C116.807 37.7827 116.674 37.7555 116.579 37.7013C116.485 37.647 116.418 37.5761 116.38 37.4885C116.341 37.3992 116.322 37.2128 116.322 36.9291V35.3245H115.975V34.9568H116.322V34.2661L116.792 33.9825V34.9568H117.267V35.3245H116.792V36.9554C116.792 37.0902 116.8 37.1769 116.816 37.2154C116.833 37.2539 116.86 37.2846 116.897 37.3073C116.936 37.3301 116.99 37.3415 117.06 37.3415C117.112 37.3415 117.182 37.3353 117.267 37.3231ZM117.556 36.3514C117.556 35.8349 117.7 35.4523 117.987 35.2037C118.227 34.9971 118.519 34.8938 118.864 34.8938C119.248 34.8938 119.561 35.0199 119.804 35.272C120.048 35.5223 120.169 35.869 120.169 36.312C120.169 36.6709 120.115 36.9537 120.007 37.1603C119.9 37.3651 119.743 37.5244 119.536 37.6382C119.332 37.752 119.108 37.8089 118.864 37.8089C118.474 37.8089 118.158 37.6838 117.916 37.4334C117.676 37.183 117.556 36.8223 117.556 36.3514ZM118.042 36.3514C118.042 36.7085 118.12 36.9764 118.276 37.155C118.432 37.3318 118.628 37.4203 118.864 37.4203C119.099 37.4203 119.294 37.331 119.45 37.1524C119.606 36.9738 119.684 36.7015 119.684 36.3356C119.684 35.9907 119.605 35.7298 119.447 35.553C119.291 35.3744 119.097 35.2851 118.864 35.2851C118.628 35.2851 118.432 35.3735 118.276 35.5504C118.12 35.7272 118.042 35.9942 118.042 36.3514ZM122.554 37.7459V37.3362C122.337 37.6514 122.042 37.8089 121.669 37.8089C121.504 37.8089 121.35 37.7774 121.207 37.7144C121.065 37.6514 120.959 37.5726 120.889 37.478C120.821 37.3817 120.773 37.2644 120.745 37.1261C120.725 37.0333 120.716 36.8863 120.716 36.6849V34.9568H121.188V36.5037C121.188 36.7506 121.198 36.9169 121.217 37.0027C121.247 37.127 121.31 37.225 121.406 37.2968C121.503 37.3669 121.622 37.4019 121.764 37.4019C121.905 37.4019 122.038 37.366 122.163 37.2942C122.287 37.2207 122.375 37.1217 122.425 36.9974C122.478 36.8714 122.504 36.6893 122.504 36.4512V34.9568H122.977V37.7459H122.554ZM123.531 36.9134L123.998 36.8399C124.025 37.0272 124.097 37.1708 124.216 37.2706C124.337 37.3704 124.505 37.4203 124.721 37.4203C124.938 37.4203 125.099 37.3765 125.204 37.2889C125.309 37.1996 125.361 37.0955 125.361 36.9764C125.361 36.8696 125.315 36.7856 125.222 36.7243C125.158 36.6823 124.996 36.6289 124.739 36.5641C124.392 36.4766 124.152 36.4013 124.017 36.3382C123.884 36.2735 123.782 36.185 123.712 36.073C123.644 35.9592 123.61 35.834 123.61 35.6974C123.61 35.5731 123.638 35.4584 123.694 35.3534C123.752 35.2466 123.83 35.1582 123.928 35.0881C124.001 35.0339 124.101 34.9883 124.227 34.9516C124.355 34.9131 124.491 34.8938 124.637 34.8938C124.856 34.8938 125.047 34.9253 125.212 34.9883C125.378 35.0514 125.501 35.1372 125.579 35.2457C125.658 35.3525 125.713 35.4961 125.742 35.6764L125.28 35.7395C125.259 35.5959 125.198 35.4838 125.096 35.4033C124.996 35.3228 124.855 35.2825 124.671 35.2825C124.454 35.2825 124.299 35.3184 124.206 35.3902C124.113 35.4619 124.067 35.546 124.067 35.6423C124.067 35.7036 124.086 35.7587 124.125 35.8077C124.163 35.8585 124.223 35.9005 124.306 35.9338C124.353 35.9513 124.492 35.9916 124.723 36.0546C125.058 36.1439 125.291 36.2174 125.422 36.2752C125.555 36.3312 125.659 36.4135 125.734 36.5221C125.81 36.6306 125.847 36.7654 125.847 36.9265C125.847 37.0841 125.801 37.2329 125.708 37.373C125.617 37.5113 125.485 37.619 125.312 37.696C125.138 37.7713 124.942 37.8089 124.723 37.8089C124.361 37.8089 124.084 37.7337 123.893 37.5831C123.704 37.4325 123.584 37.2093 123.531 36.9134Z" fill="white"/>
</svg>
